<svg width="124" height="78" viewBox="0 0 124 78" fill="none" xmlns="http://www.w3.org/2000/svg">
<path d="M21.12 57.008C25.1733 57.008 28.4373 55.6427 30.912 52.912L34.24 56.88C32.7467 58.672 30.848 60.0373 28.544 60.976C26.2827 61.9147 23.744 62.384 20.928 62.384C17.344 62.384 14.1653 61.6587 11.392 60.208C8.61867 58.7147 6.464 56.6453 4.928 54C3.43467 51.3547 2.688 48.368 2.688 45.04C2.688 41.7547 3.41333 38.7893 4.864 36.144C6.35733 33.4987 8.384 31.4507 10.944 30C13.5467 28.5067 16.4693 27.76 19.712 27.76C22.784 27.76 25.5787 28.464 28.096 29.872C30.6133 31.2373 32.6187 33.1787 34.112 35.696C35.6053 38.2133 36.3733 41.1147 36.416 44.4L9.472 49.648C10.3253 51.9947 11.7547 53.808 13.76 55.088C15.808 56.368 18.2613 57.008 21.12 57.008ZM19.712 32.944C17.5787 32.944 15.6587 33.4347 13.952 34.416C12.288 35.3973 10.9867 36.784 10.048 38.576C9.10933 40.3253 8.64 42.3733 8.64 44.72V45.36L30.336 41.264C29.7813 38.7893 28.544 36.784 26.624 35.248C24.704 33.712 22.4 32.944 19.712 32.944ZM55.3155 62.384C52.0302 62.384 49.4915 61.488 47.6995 59.696C45.9075 57.8613 45.0115 55.3013 45.0115 52.016V14.512H51.1555V51.504C51.1555 53.3387 51.5822 54.7467 52.4355 55.728C53.3315 56.7093 54.6542 57.2 56.4035 57.2C57.4702 57.2 58.4728 56.9867 59.4115 56.56L59.7315 61.616C58.3235 62.128 56.8515 62.384 55.3155 62.384ZM75.878 62.384C72.5927 62.384 70.054 61.488 68.262 59.696C66.47 57.8613 65.574 55.3013 65.574 52.016V14.512H71.718V51.504C71.718 53.3387 72.1447 54.7467 72.998 55.728C73.894 56.7093 75.2167 57.2 76.966 57.2C78.0327 57.2 79.0353 56.9867 79.974 56.56L80.294 61.616C78.886 62.128 77.414 62.384 75.878 62.384ZM117.512 28.08V62H111.624V56.624C110.258 58.5013 108.53 59.9307 106.44 60.912C104.349 61.8933 102.045 62.384 99.5275 62.384C96.2422 62.384 93.2982 61.6587 90.6955 60.208C88.0928 58.7573 86.0448 56.7307 84.5515 54.128C83.1008 51.4827 82.3755 48.4533 82.3755 45.04C82.3755 41.6267 83.1008 38.6187 84.5515 36.016C86.0448 33.4133 88.0928 31.3867 90.6955 29.936C93.2982 28.4853 96.2422 27.76 99.5275 27.76C101.96 27.76 104.2 28.2293 106.248 29.168C108.296 30.064 110.002 31.408 111.368 33.2V28.08H117.512ZM100.04 57.008C102.173 57.008 104.114 56.5173 105.864 55.536C107.613 54.512 108.978 53.104 109.96 51.312C110.941 49.4773 111.432 47.3867 111.432 45.04C111.432 42.6933 110.941 40.624 109.96 38.832C108.978 36.9973 107.613 35.5893 105.864 34.608C104.114 33.6267 102.173 33.136 100.04 33.136C97.8635 33.136 95.9008 33.6267 94.1515 34.608C92.4448 35.5893 91.0795 36.9973 90.0555 38.832C89.0742 40.624 88.5835 42.6933 88.5835 45.04C88.5835 47.3867 89.0742 49.4773 90.0555 51.312C91.0795 53.104 92.4448 54.512 94.1515 55.536C95.9008 56.5173 97.8635 57.008 100.04 57.008Z" fill="black"/>
<rect x="10" y="18" width="29" height="4" fill="black"/>
</svg>
