<svg width="55" height="55" viewBox="0 0 55 55" fill="none" xmlns="http://www.w3.org/2000/svg">
<path d="M36.6667 6.875H2.29169V36.6667H36.6667V6.875Z" stroke="#9C1137" stroke-width="2" stroke-linecap="round" stroke-linejoin="round"/>
<path d="M36.6667 18.3333H45.8334L52.7084 25.2083V36.6666H36.6667V18.3333Z" stroke="#9C1137" stroke-width="2" stroke-linecap="round" stroke-linejoin="round"/>
<path d="M12.6042 48.1251C15.7683 48.1251 18.3333 45.56 18.3333 42.3959C18.3333 39.2318 15.7683 36.6667 12.6042 36.6667C9.44004 36.6667 6.875 39.2318 6.875 42.3959C6.875 45.56 9.44004 48.1251 12.6042 48.1251Z" stroke="#9C1137" stroke-width="2" stroke-linecap="round" stroke-linejoin="round"/>
<path d="M42.3959 48.1251C45.56 48.1251 48.125 45.56 48.125 42.3959C48.125 39.2318 45.56 36.6667 42.3959 36.6667C39.2317 36.6667 36.6667 39.2318 36.6667 42.3959C36.6667 45.56 39.2317 48.1251 42.3959 48.1251Z" stroke="#9C1137" stroke-width="2" stroke-linecap="round" stroke-linejoin="round"/>
</svg>
